<?xml version="1.0" encoding="UTF-8"?>
<svg id="_Слой_2" data-name="Слой 2" xmlns="http://www.w3.org/2000/svg" viewBox="0 0 160 160">
  <defs>
    <style>
      .cls-1 {
        fill: #fff;
      }

      .cls-2 {
        fill: none;
      }

      .cls-3 {
        fill: #025bff;
      }

      .cls-4 {
        fill: #ff0694;
      }
    </style>
  </defs>
  <path class="cls-2" d="M80,0c-24.98,0-47.28,11.45-61.95,29.39l.52.14C33.15,11.81,55.25.5,80,.5c43.91,0,79.5,35.59,79.5,79.5s-35.59,79.5-79.5,79.5S.5,123.91.5,80c0-15.27,4.31-29.52,11.77-41.63-.15-.08-.28-.19-.41-.29C4.34,50.28,0,64.63,0,80c0,44.18,35.82,80,80,80s80-35.82,80-80S124.18,0,80,0Z"/>
  <path class="cls-3" d="M35.8,37.46l4.65,17.66,39.55-7.09V.5c-24.75,0-46.85,11.31-61.43,29.04l13.88,3.84c1.98.55,2.94,2.18,3.35,4.08Z"/>
  <polygon class="cls-3" points="43.1 65.19 47.56 82.1 80 82.1 80 58.58 43.1 65.19"/>
  <path class="cls-3" d="M48.92,112.44c-.77.13-1.61-.29-2.28-1.04-1.12-.72-1.97-1.86-2.27-3.26l-1.52-6.92c-.61-2.8,1.16-5.57,3.96-6.18,2.8-.61,5.57,1.16,6.18,3.96l.86,3.92,26.16,2.37v-12.82h-36.26c-2.48,0-4.55-1.75-5.06-4.08h-.05s-12.09-45.89-12.09-45.89l-13.06-3.61c-.44-.12-.83-.31-1.21-.53C4.81,50.48.5,64.73.5,80c0,43.91,35.59,79.5,79.5,79.5v-44.24l-31.08-2.82ZM58.5,130c-4.14,0-7.5-3.36-7.5-7.5s3.36-7.5,7.5-7.5,7.5,3.36,7.5,7.5-3.36,7.5-7.5,7.5Z"/>
  <polygon class="cls-4" points="98.18 106.95 101.47 92.48 80 92.48 80 105.3 98.18 106.95"/>
  <path class="cls-4" d="M117.24,41.36c.87-.25,2.08-.36,3.84-.35l.46.13c2.76.76,4.38,3.62,3.62,6.39l-7.65,27.62c-.76,2.76-3.62,4.38-6.39,3.62l-.46-.13c-2.76-.76-4.38-3.62-3.62-6.39l5.39-19.48-32.45,5.81v23.52h27.81s0,0,0,0c.41,0,.82.02,1.23.11,2.64.6,4.31,3.15,3.88,5.78-.02.15-.04.31-.07.46l-5.68,24.96c-.63,2.75-3.36,4.47-6.11,3.84-.04,0-.07-.03-.11-.04-.26-.03-.52-.07-.8-.13l-20.16-1.83v44.24c43.91,0,79.5-35.59,79.5-79.5S123.91.5,80,.5v47.53l37.24-6.67ZM89.5,133c-4.14,0-7.5-3.36-7.5-7.5s3.36-7.5,7.5-7.5,7.5,3.36,7.5,7.5-3.36,7.5-7.5,7.5Z"/>
  <circle class="cls-1" cx="89.5" cy="125.5" r="7.5"/>
  <circle class="cls-1" cx="58.5" cy="122.5" r="7.5"/>
  <path class="cls-1" d="M13.48,38.9l13.06,3.61,12.09,45.9h.05c.51,2.32,2.58,4.06,5.06,4.06h57.73l-3.29,14.47-18.18-1.65-26.16-2.37-.86-3.92c-.61-2.8-3.38-4.57-6.18-3.96-2.8.61-4.57,3.38-3.96,6.18l1.52,6.92c.31,1.4,1.15,2.54,2.27,3.26.68.75,1.51,1.17,2.28,1.04l31.08,2.82,20.16,1.83c.27.06.54.1.8.13.04,0,.07.03.11.04,2.75.63,5.48-1.1,6.11-3.84l5.68-24.96c.03-.15.05-.31.07-.46.42-2.63-1.25-5.18-3.88-5.78-.41-.09-.82-.12-1.23-.11,0,0,0,0,0,0h-60.25l-4.45-16.91,36.9-6.61,32.45-5.81-5.39,19.48c-.76,2.76.85,5.62,3.62,6.39l.46.13c2.76.76,5.62-.85,6.39-3.62l7.65-27.62c.76-2.76-.85-5.62-3.62-6.39l-.46-.13c-1.77,0-2.97.1-3.84.35l-37.24,6.67-39.55,7.09-4.65-17.66c-.41-1.9-1.37-3.53-3.35-4.08l-13.88-3.84-.52-.14c-2.25,2.75-4.32,5.65-6.19,8.69.14.1.27.2.41.29.37.22.77.41,1.21.53Z"/>
</svg>